<svg xmlns="http://www.w3.org/2000/svg" viewBox="0 0 512 512">
  <defs>
    <linearGradient id="bg" x1="0%" y1="0%" x2="100%" y2="100%">
      <stop offset="0%" style="stop-color:#4F46E5"/>
      <stop offset="100%" style="stop-color:#7C3AED"/>
    </linearGradient>
  </defs>
  <rect width="512" height="512" rx="96" fill="url(#bg)"/>
  <g fill="white">
    <!-- Monitor/Screen -->
    <rect x="96" y="112" width="320" height="216" rx="16"/>
    <!-- Screen inner -->
    <rect x="112" y="128" width="288" height="184" rx="8" fill="#1e1b4b"/>
    <!-- Stand -->
    <rect x="216" y="328" width="80" height="48" rx="4"/>
    <rect x="176" y="368" width="160" height="24" rx="8"/>
    <!-- VM icon on screen -->
    <rect x="160" y="176" width="72" height="88" rx="8" fill="#818cf8"/>
    <rect x="176" y="192" width="40" height="24" rx="4" fill="#c7d2fe"/>
    <rect x="176" y="224" width="32" height="8" rx="2" fill="#c7d2fe"/>
    <rect x="176" y="240" width="24" height="8" rx="2" fill="#c7d2fe"/>
    <!-- Second VM icon -->
    <rect x="280" y="176" width="72" height="88" rx="8" fill="#34d399"/>
    <rect x="296" y="192" width="40" height="24" rx="4" fill="#a7f3d0"/>
    <rect x="296" y="224" width="32" height="8" rx="2" fill="#a7f3d0"/>
    <rect x="296" y="240" width="24" height="8" rx="2" fill="#a7f3d0"/>
  </g>
</svg>
